<svg xmlns="http://www.w3.org/2000/svg" viewBox="0 0 110.77 102.89"><defs><style>.cls-1{fill:#fff;}.cls-1,.cls-2{stroke:#000;stroke-miterlimit:10;}.cls-2{fill:#f5adcc;}.cls-3{fill:#ef71af;}.cls-4{font-size:6.97px;font-family:LucidaSansUnicode, Lucida Sans Unicode;letter-spacing:0.02em;}</style></defs><title>NayaraLeal</title><g id="Logo"><ellipse class="cls-1" cx="58.39" cy="38.4" rx="38.01" ry="37.9"/><g id="Linhas_Dentro" data-name="Linhas Dentro"><polyline class="cls-2" points="28.59 55.44 47.46 55.49 47.39 36.52 63.15 55.77 88.19 55.74"/><polyline class="cls-2" points="75.78 11.79 63.03 17.89 35.78 30.79"/><line class="cls-2" x1="63.23" y1="55.99" x2="63.03" y2="17.89"/><polyline class="cls-2" points="68.54 15.16 68.9 50.65 83.43 50.43 83.43 55.8"/><line class="cls-2" x1="41.61" y1="28.33" x2="41.68" y2="55.4"/></g><path d="M246,161.21c-.93.1-1.23.25-1.28.92,0,.46,0,1.07,0,2.42v5.82h-.55L238,162.78v3.63c0,1.3,0,2,.07,2.38,0,.74.39,1,1.44,1v.41h-3.53v-.41c.9-.07,1.25-.29,1.31-1,0-.46.07-1.12.07-2.44v-3.7a1.25,1.25,0,0,0-.29-.95c-.28-.37-.58-.45-1.29-.53v-.4h2.17l6.16,7.3v-3.56c0-1.35,0-2-.07-2.41-.05-.65-.38-.85-1.54-.93v-.4H246Z" transform="translate(-223.14 -79.18)"/><path d="M252.16,170.24v-.41c.94-.11,1.06-.26.86-.81s-.48-1.29-.79-2.21H249.1c-.23.66-.45,1.22-.65,1.82-.32.94-.12,1.06,1.07,1.2v.41h-3.35v-.41c.91-.11,1.14-.22,1.65-1.52l3-7.62.47-.09,2.83,7.74c.46,1.26.59,1.38,1.62,1.49v.41Zm-1.45-7.74-1.39,3.72H252Z" transform="translate(-223.14 -79.18)"/><path d="M263.43,161.21c-1,.12-1.19.28-1.77,1.21s-1.19,2.06-1.9,3.35a1.58,1.58,0,0,0-.22.86v1.78c0,1.2.13,1.29,1.48,1.42v.41h-4.16v-.41c1.32-.17,1.42-.2,1.42-1.42v-1.87a1.5,1.5,0,0,0-.29-.84c-.51-.95-1-1.86-1.78-3.22-.57-1-.72-1.17-1.7-1.27v-.4h3.57v.4c-1.05.15-1,.34-.73.83.61,1.12,1.29,2.42,1.9,3.51.53-1,1.35-2.55,1.76-3.35s.29-.87-.86-1v-.4h3.28Z" transform="translate(-223.14 -79.18)"/><path d="M268,170.24v-.41c.94-.11,1.05-.26.85-.81s-.48-1.29-.78-2.21h-3.14c-.23.66-.45,1.22-.65,1.82-.32.94-.12,1.06,1.07,1.2v.41H262v-.41c.92-.11,1.15-.22,1.66-1.52l3-7.62.46-.09c.92,2.48,1.92,5.23,2.83,7.74.47,1.26.6,1.38,1.63,1.49v.41Zm-1.46-7.74c-.46,1.25-.95,2.57-1.39,3.72h2.71Z" transform="translate(-223.14 -79.18)"/><path d="M280.75,170.35l-.54,0a2.6,2.6,0,0,1-2.26-1.25c-.54-.74-1.06-1.66-1.52-2.4-.29-.46-.48-.55-1.22-.55h-.51v2.28c0,1.23.16,1.31,1.32,1.42v.41h-3.87v-.41c1.2-.13,1.3-.19,1.3-1.42v-5.79c0-1.23-.16-1.28-1.3-1.41v-.4h3.7a4.11,4.11,0,0,1,2.32.49,2.19,2.19,0,0,1,1,1.92,2.69,2.69,0,0,1-1.88,2.49c.26.45.89,1.42,1.32,2.08a13.57,13.57,0,0,0,1.15,1.49,2.13,2.13,0,0,0,1.06.67Zm-5.35-4.71a2.35,2.35,0,0,0,1.59-.42,2,2,0,0,0,.8-1.79,2,2,0,0,0-2.15-2.12,1.32,1.32,0,0,0-.77.15c-.13.1-.17.25-.17.62v3.56Z" transform="translate(-223.14 -79.18)"/><path d="M287,170.24v-.41c.94-.11,1.06-.26.85-.81s-.47-1.29-.78-2.21H283.9c-.24.66-.45,1.22-.66,1.82-.32.94-.11,1.06,1.08,1.2v.41H281v-.41c.91-.11,1.14-.22,1.65-1.52l3-7.62.47-.09,2.83,7.74c.46,1.26.59,1.38,1.62,1.49v.41Zm-1.45-7.74c-.47,1.25-1,2.57-1.4,3.72h2.72Z" transform="translate(-223.14 -79.18)"/><path class="cls-3" d="M301.57,167.83c-.09.45-.53,2-.67,2.41h-6.75v-.41c1.32-.13,1.44-.2,1.44-1.43v-5.77c0-1.23-.15-1.3-1.31-1.42v-.4h3.89v.4c-1.16.12-1.32.18-1.32,1.42v5.91c0,.89.12,1.09.94,1.1l1.15,0c.74,0,1-.09,1.29-.45a5.05,5.05,0,0,0,.89-1.5Z" transform="translate(-223.14 -79.18)"/><path class="cls-3" d="M310.05,167.93c-.09.38-.48,1.87-.62,2.31h-7.05v-.41c1.35-.1,1.45-.23,1.45-1.42v-5.73c0-1.29-.16-1.37-1.25-1.47v-.4H307c1.36,0,1.93,0,2.1,0,0,.36.08,1.45.13,2.22l-.43.07a4.72,4.72,0,0,0-.44-1.1c-.23-.48-.56-.58-1.43-.58h-1.38c-.45,0-.48,0-.48.46v3.21h1.61c1.09,0,1.16-.22,1.34-1.21h.45v3H308c-.19-1-.31-1.19-1.35-1.19h-1.6v2.89c0,1,.32,1.1,1,1.12h1.35c.89,0,1-.13,1.35-.51a6.32,6.32,0,0,0,.79-1.33Z" transform="translate(-223.14 -79.18)"/><path class="cls-3" d="M316,170.24v-.41c.94-.11,1.05-.26.85-.81s-.48-1.29-.78-2.21h-3.14c-.23.66-.45,1.22-.65,1.82-.32.94-.12,1.06,1.07,1.2v.41H310v-.41c.92-.11,1.15-.22,1.66-1.52l3-7.62.46-.09c.92,2.48,1.92,5.23,2.83,7.74.47,1.26.6,1.38,1.63,1.49v.41Zm-1.46-7.74c-.46,1.25-.95,2.57-1.39,3.72h2.71Z" transform="translate(-223.14 -79.18)"/><path class="cls-3" d="M327.4,167.83c-.09.45-.52,2-.67,2.41H320v-.41c1.32-.13,1.43-.2,1.43-1.43v-5.77c0-1.23-.14-1.3-1.3-1.42v-.4H324v.4c-1.16.12-1.32.18-1.32,1.42v5.91c0,.89.12,1.09.95,1.1l1.14,0c.74,0,1-.09,1.3-.45a5,5,0,0,0,.88-1.5Z" transform="translate(-223.14 -79.18)"/><text class="cls-4" transform="translate(0 99.82) scale(1.12 1)">ARQUITETURA E INTERIORES</text></g></svg>